# xmcd
#
# Track frame offsets: 
#        150
#        23373
#        37433
#        56878
#        75350
#        86705
#        112263
#        137270
#        153295
#        170182
#        198695
#
# Disc length: 2784 seconds
#
# Revision: 2
# Processed by: cddbd v1.5.2PL0 Copyright (c) Steve Scherf et al.
# Submitted via: ExactAudioCopy v1.0b3
#
DISCID=940ade0b
DTITLE=Oscar Peterson - For Lovers
DYEAR=2004
DGENRE=Jazz
TTITLE0=My One And Only Love
TTITLE1=The Man I Love
TTITLE2=They Didn't Believe Me
TTITLE3=I've Got A Crush On You
TTITLE4=Prelude To A Kiss
TTITLE5=Heartstrings
TTITLE6=Somewhere
TTITLE7=Sweet Lorraine
TTITLE8=I'm A Fool To Want You
TTITLE9=I Want To Stay Here (aka "I Loves You Porgy")
TTITLE10=Over The Rainbow
EXTD=YEAR: 2004
EXTT0=
EXTT1=
EXTT2=
EXTT3=
EXTT4=
EXTT5=
EXTT6=
EXTT7=
EXTT8=
EXTT9=
EXTT10=
PLAYORDER=
